#!OML:ASF F:\VICON\USERDATA\INSTALL\rory3\rory3.ASF
:FULLY-SPECIFIED
:DEGREES
71
root 0.6170919531291766 17.65435209802218 31.153718218736678 2.887141696652726 4.20305313059102 1.8208875262480895
lfemur -6.905124665622889 0.10251420578135972 -24.865971106760036
ltibia 37.412153862667815
lfoot -1.8209039295367242 -10.643404512115753
ltoes -8.849314370519652
rfemur -35.13525182624528 1.0082910250612858 23.524188580388497
rtibia 58.162472180426114
rfoot 2.427591500276278 -3.9921576611879424
rtoes -3.2461522218639276
lowerback 15.08439368409336 -0.4136352705210328 -0.4288647448367746
upperback -0.791355023313259 -0.9529801242994553 0.38775740515463564
thorax -9.420682523210706 -0.22506552225271892 1.4119893646387114
lowerneck -20.11920913736663 -4.929507728068986 -1.971638914517104
upperneck 15.201971584437267 -6.709179547064873 3.5903622561261983
head 8.249188783506446 -3.0370145765091925 0.6119742548442313
lclavicle -1.9521729781560437e-15 1.1013548979497733e-15
lhumerus -43.14921024941055 -10.111142578567513 96.17340663006159
lradius 112.95781973735001
lwrist 46.340961569220596
lhand -18.133021996123784 6.311783950866047
lfingers 7.125020000000001
lthumb 8.075564996211593 35.98982627659877
rclavicle -1.952176533109819e-15 1.1013521049827522e-15
rhumerus -51.68703991864271 14.343749138380801 -104.03421245394553
rradius 113.79165016060763
rwrist -15.570418768554706
rhand -23.94461817823069 -103.92571129251284
rfingers 7.125020000000001
rthumb 3.4322899407887775 14.84240774167386
72
root 0.6421349614433869 17.760458632533993 31.677725102036387 3.0879876912050634 3.2193669295712732 1.638613103867391
lfemur -8.51600845307506 -0.04714533178478442 -25.444813708329004
ltibia 34.96536216262733
lfoot -2.3150485909337926 -10.904571633764503
ltoes -8.484514952423343
rfemur -34.9857365676496 1.9894590576366327 24.369745194624503
rtibia 56.205980766013816
rfoot 2.7702801903422722 -3.4515527357577427
rtoes -3.0394414667528693
lowerback 14.804237412302575 -0.5311666022303196 -0.4633770932838024
upperback -0.9277297854218731 -1.0281446686065447 0.6368426915852925
thorax -9.431166569177568 -0.32930653502319174 1.4334876097338627
lowerneck -20.142793126895793 -4.775647011405439 -1.9591780048796512
upperneck 15.357174702429813 -6.390162929000607 3.510826586193589
head 8.259498042249405 -3.0179993086215617 0.599061807898889
lclavicle -1.9521729781560437e-15 1.1013548979497733e-15
lhumerus -42.18161370125764 -9.985800822496605 96.24730510625605
lradius 113.31486590982338
lwrist 46.541460230827305
lhand -18.085262596072933 6.349908726066356
lfingers 7.125020000000001
lthumb 8.179569750581969 36.03602652323045
rclavicle -1.952176533109819e-15 1.1013521049827522e-15
rhumerus -52.47335724372715 14.372747781161827 -103.85341578704885
rradius 113.84482799911517
rwrist -15.508068968010873
rhand -23.7988324339566 -98.89939320262786
rfingers 7.125020000000001
rthumb 3.4932573000313116 15.229082809538198
73
root 0.6714155967804918 17.868163733499006 32.43853403510673 3.3204686789968356 2.326317839483904 1.468723761742349
lfemur -6.793318154278879 0.2031533543323379 -25.121702088389256
ltibia 32.91763928481058
lfoot -0.8920916944912385 -10.982731416925262
ltoes -7.795287676455317
rfemur -35.29601299326383 2.848832809554839 25.02273385344231
rtibia 54.290641264802886
rfoot 3.231242597899663 -2.8625150879029237
rtoes -2.6547767655095758
lowerback 14.479388716538379 -0.6362275098103616 -0.4980806555211239
upperback -1.1144604718467472 -1.147633465276103 0.8374578228084105
thorax -9.352241368389961 -0.362671665521916 1.5709659529418885
lowerneck -20.222617063982213 -4.679228072992868 -1.9760062897483075
upperneck 15.519541342933438 -6.123691009076948 3.394911878382765
head 8.291448198864519 -2.961793122487061 0.5943964071077383
lclavicle -1.9521729781560437e-15 1.1013548979497733e-15
lhumerus -41.726973001014095 -10.076549546575785 96.2731554302013
lradius 113.66685055370748
lwrist 46.8053921728451
lhand -18.12351826257897 6.303458773123333
lfingers 7.125020000000001
lthumb 8.264684237064936 36.06685273324077
rclavicle -1.952176533109819e-15 1.1013521049827522e-15
rhumerus -53.22557663259579 14.33167222147478 -103.63413537629651
rradius 113.86453830894064
rwrist -15.644091047197605
rhand -24.135796179734175 -104.17642367944322
rfingers 7.125020000000001
rthumb 3.5145305910767433 15.683621292578648
74
root 0.7005772283884592 17.96153649429672 33.06841739135767 3.5165732047706904 1.547344272717931 1.3325137381144359
lfemur -7.9947450172616445 0.004502560725119509 -25.60638846052532
ltibia 31.62535109458006
lfoot -0.20393724962098259 -11.181462552566039
ltoes -7.4256065584193784
rfemur -33.98787590902833 3.6141184269960056 25.809899781023244
rtibia 52.49794849104106
rfoot 2.7336232403233813 -2.9451335379589456
rtoes -1.8957819213686342
lowerback 14.179531171062596 -0.7154807931873006 -0.46580419020982844
upperback -1.2868329204407298 -1.2070110511729049 1.040311667782256
thorax -9.43263185923867 -0.48726298813362334 1.4309486648481018
lowerneck -20.198060300281774 -4.50592262597187 -1.9699414953745535
upperneck 15.768687320866249 -5.801419272686014 3.317646775560062
head 8.309818777388774 -2.92042434496267 0.5827042787460461
lclavicle -1.9521729781560437e-15 1.1013548979497733e-15
lhumerus -41.73672191869386 -10.2048877990647 96.26226381399712
lradius 113.76246424545265
lwrist 46.96246886714492
lhand -18.1939664775916 6.17901907399305
lfingers 7.125020000000001
lthumb 8.374432260031238 36.09026830899002
rclavicle -1.952176533109819e-15 1.1013521049827522e-15
rhumerus -53.886826446444516 14.20198497934561 -103.36976096629675
rradius 113.83875195058064
rwrist -15.379060044597717
rhand -24.02378769319221 -101.4706171408439
rfingers 7.125020000000001
rthumb 3.778537111311619 16.408364463960076
75
root 0.7306992419338201 18.04153455178301 34.0758104382474 3.654529848872753 1.0547490015901904 1.358475455971464
lfemur -5.654547140168297 0.6396761188287254 -24.444429992671736
ltibia 31.40744094573947
lfoot 0.2539527924079621 -12.298919375325843
ltoes -6.9423545869131695
rfemur -34.00855124543361 4.0263672295178585 25.93108888317125
rtibia 51.09674909883806
rfoot 2.503610784920317 -3.3523436029812794
rtoes -1.5699104674855577
lowerback 13.951253313925292 -0.7750388661258052 -0.38448783695705946
upperback -1.4073480476646025 -1.2381512229812914 1.2440054880957305
thorax -9.383862469308957 -0.48672515366071945 1.555130798631166
lowerneck -20.185861278230455 -4.400776817279372 -1.9941881583067407
upperneck 15.957619090439689 -5.576420698500243 3.19106661691605
head 8.3326660084754 -2.87461898366935 0.5746006606158026
lclavicle -1.9521729781560437e-15 1.1013548979497733e-15
lhumerus -42.56788176846637 -10.614244318395563 96.16278177101934
lradius 113.76069265349633
lwrist 46.58299654338073
lhand -18.258370259302406 6.164237440538911
lfingers 7.125020000000001
lthumb 8.403302626587433 35.96526310641945
rclavicle -1.952176533109819e-15 1.1013521049827522e-15
rhumerus -54.54440209343857 13.92984080307479 -103.09553699186648
rradius 113.76261099500756
rwrist -15.142407752811746
rhand -24.1532122246174 -102.79182413077203
rfingers 7.125020000000001
rthumb 3.2753560612735693 15.777623989823432
76
root 0.7496490247257079 18.07081410145248 33.93859997760157 3.5979400477561603 0.5479994593169064 1.3331462006098604
lfemur -6.850672089035836 0.5799164235179268 -24.697711923823725
ltibia 32.40071715818914
lfoot 0.3204671406117263 -12.953258739654794
ltoes -6.823991721123884
rfemur -32.36445032043695 4.45495721138053 26.606000220167648
rtibia 50.69228050066692
rfoot 1.8164578046171909 -4.189635916140928
rtoes -0.7412404066330183
lowerback 13.794860778908903 -0.8269559286729196 -0.3033880966740343
upperback -1.494390894215424 -1.309205788770767 1.3976756218655924
thorax -9.427880538369632 -0.5335363894483515 1.5078564242498682
lowerneck -20.144851618737228 -4.27913452798267 -2.000671374500299
upperneck 16.160257428830967 -5.37052500572354 3.083286578114486
head 8.366034820872184 -2.799370524398161 0.5805182841234764
lclavicle -1.9521729781560437e-15 1.1013548979497733e-15
lhumerus -42.91436294997059 -10.722361630758249 96.30169008705728
lradius 113.41653354490187
lwrist 46.390532302379995
lhand -18.271197391676985 6.194551388516869
lfingers 7.125020000000001
lthumb 8.429619430415407 35.765484020643825
rclavicle -1.952176533109819e-15 1.1013521049827522e-15
rhumerus -55.1267890991998 13.551467537578802 -102.78116725499916
rradius 113.61711530035359
rwrist -14.829598715286583
rhand -24.220667905695045 -101.04874583212644
rfingers 7.125020000000001
rthumb 3.4627257523227875 16.10664055805234
